<svg width="273" height="84" viewBox="0 0 273 84" fill="none" xmlns="http://www.w3.org/2000/svg">
<path d="M16.822 75.806L21.448 67.4H19.288L15.76 73.538L12.16 67.4H10.018L14.716 75.878V80H16.822V75.806Z" fill="#35598D"/>
<path d="M26.1281 70.352C23.1581 70.352 21.1241 72.314 21.1241 75.212C21.1241 78.092 23.1581 80.072 26.1281 80.072C29.0801 80.072 31.1141 78.092 31.1141 75.212C31.1141 72.314 29.0801 70.352 26.1281 70.352ZM26.1281 72.134C27.8381 72.134 29.0441 73.394 29.0441 75.23C29.0441 77.084 27.8381 78.344 26.1281 78.344C24.4001 78.344 23.1941 77.084 23.1941 75.23C23.1941 73.394 24.4001 72.134 26.1281 72.134Z" fill="#35598D"/>
<path d="M41.9681 70.424H39.8981V75.14C39.8981 76.814 38.9261 78.092 37.2701 78.128C35.8841 78.128 35.0381 77.246 35.0381 75.806V70.424H32.9681V76.382C32.9681 78.668 34.2821 80.072 36.4781 80.072C38.0441 80.054 39.2501 79.46 39.8981 78.128V80H41.9681V70.424Z" fill="#35598D"/>
<path d="M47.1039 70.424H45.0339V80H47.1039V74.996C47.2659 73.358 48.4899 72.224 50.4159 72.332V70.352C48.9039 70.352 47.7519 71.036 47.1039 72.332V70.424Z" fill="#35598D"/>
<path d="M62.4645 67.346C58.7385 67.346 55.8405 70.1 55.8405 73.682C55.8405 77.3 58.7025 80.09 62.3925 80.09C64.1745 80.09 65.9925 79.28 67.2705 78.02L66.0105 76.616C65.0565 77.534 63.7605 78.11 62.5005 78.11C59.9805 78.11 58.0005 76.148 58.0005 73.664C58.0005 71.18 59.9805 69.236 62.5005 69.236C63.7785 69.236 65.0925 69.848 66.0105 70.838L67.2525 69.29C66.0285 68.084 64.2465 67.346 62.4645 67.346Z" fill="#35598D"/>
<path d="M73.1496 70.352C70.1796 70.352 68.1456 72.314 68.1456 75.212C68.1456 78.092 70.1796 80.072 73.1496 80.072C76.1016 80.072 78.1356 78.092 78.1356 75.212C78.1356 72.314 76.1016 70.352 73.1496 70.352ZM73.1496 72.134C74.8596 72.134 76.0656 73.394 76.0656 75.23C76.0656 77.084 74.8596 78.344 73.1496 78.344C71.4216 78.344 70.2156 77.084 70.2156 75.23C70.2156 73.394 71.4216 72.134 73.1496 72.134Z" fill="#35598D"/>
<path d="M92.7876 70.352C91.0416 70.352 89.7636 71.054 89.1516 72.656C88.7016 71.198 87.5316 70.352 85.8216 70.352C84.2376 70.352 83.0136 70.928 82.3476 72.278V70.424H80.2956V80H82.3476V75.266C82.3476 73.592 83.3556 72.332 85.0116 72.278C86.4156 72.278 87.2616 73.16 87.2616 74.618V80H89.3316V75.266C89.3316 73.592 90.3216 72.332 91.9596 72.278C93.3636 72.278 94.2276 73.16 94.2276 74.618V80H96.2976V74.042C96.2976 71.756 94.9836 70.352 92.7876 70.352Z" fill="#35598D"/>
<path d="M102.813 68.354C103.245 68.354 103.731 68.516 104.127 68.804L104.919 67.22C104.307 66.77 103.533 66.554 102.759 66.554C101.103 66.554 99.4651 67.616 99.4651 69.848V70.784H98.2051V72.332H99.4651V80H101.517V72.332H104.019V70.784H101.517V69.65C101.517 68.75 102.111 68.354 102.813 68.354Z" fill="#35598D"/>
<path d="M109.167 70.352C106.197 70.352 104.163 72.314 104.163 75.212C104.163 78.092 106.197 80.072 109.167 80.072C112.119 80.072 114.153 78.092 114.153 75.212C114.153 72.314 112.119 70.352 109.167 70.352ZM109.167 72.134C110.877 72.134 112.083 73.394 112.083 75.23C112.083 77.084 110.877 78.344 109.167 78.344C107.439 78.344 106.233 77.084 106.233 75.23C106.233 73.394 107.439 72.134 109.167 72.134Z" fill="#35598D"/>
<path d="M118.383 70.424H116.313V80H118.383V74.996C118.545 73.358 119.769 72.224 121.695 72.332V70.352C120.183 70.352 119.031 71.036 118.383 72.332V70.424Z" fill="#35598D"/>
<path d="M128.293 77.804C127.735 78.074 127.285 78.218 126.853 78.218C126.205 78.218 125.827 77.912 125.827 76.922V72.332H128.653V70.784H125.827V68.156H123.775V70.784H122.425V72.332H123.775V77.3C123.775 79.262 125.017 80.09 126.457 80.09C127.267 80.09 128.059 79.838 128.815 79.388L128.293 77.804Z" fill="#35598D"/>
<path d="M136.394 66.428C135.71 66.428 135.188 66.95 135.188 67.688C135.188 68.408 135.71 68.93 136.394 68.93C137.078 68.93 137.6 68.408 137.6 67.688C137.6 66.95 137.078 66.428 136.394 66.428ZM137.42 80V70.424H135.368V80H137.42Z" fill="#35598D"/>
<path d="M143.345 70.334C141.509 70.334 139.817 71.162 139.817 73.106C139.799 76.562 144.839 75.464 144.839 77.426C144.839 78.146 144.155 78.452 143.273 78.452C142.229 78.452 140.897 78.002 140.069 77.264L139.331 78.74C140.285 79.604 141.779 80.072 143.183 80.072C145.109 80.072 146.855 79.19 146.855 77.228C146.873 73.754 141.779 74.708 141.779 72.944C141.779 72.26 142.373 71.99 143.183 71.99C144.029 71.99 145.091 72.314 145.937 72.836L146.693 71.306C145.829 70.694 144.551 70.334 143.345 70.334Z" fill="#35598D"/>
<path d="M157.683 70.352C154.713 70.352 152.679 72.314 152.679 75.212C152.679 78.092 154.713 80.072 157.683 80.072C160.635 80.072 162.669 78.092 162.669 75.212C162.669 72.314 160.635 70.352 157.683 70.352ZM157.683 72.134C159.393 72.134 160.599 73.394 160.599 75.23C160.599 77.084 159.393 78.344 157.683 78.344C155.955 78.344 154.749 77.084 154.749 75.23C154.749 73.394 155.955 72.134 157.683 72.134Z" fill="#35598D"/>
<path d="M173.523 70.424H171.453V75.14C171.453 76.814 170.481 78.092 168.825 78.128C167.439 78.128 166.593 77.246 166.593 75.806V70.424H164.523V76.382C164.523 78.668 165.837 80.072 168.033 80.072C169.599 80.054 170.805 79.46 171.453 78.128V80H173.523V70.424Z" fill="#35598D"/>
<path d="M178.659 70.424H176.589V80H178.659V74.996C178.821 73.358 180.045 72.224 181.971 72.332V70.352C180.459 70.352 179.307 71.036 178.659 72.332V70.424Z" fill="#35598D"/>
<path d="M193.821 70.352C192.327 70.352 191.175 70.964 190.473 72.08V70.424H188.403V83.492H190.473V78.344C191.175 79.46 192.327 80.072 193.857 80.072C196.593 80.072 198.393 78.11 198.393 75.248C198.393 72.332 196.539 70.352 193.821 70.352ZM193.389 78.308C191.679 78.308 190.473 77.03 190.473 75.176C190.473 73.376 191.679 72.08 193.389 72.08C195.099 72.08 196.305 73.394 196.305 75.176C196.305 77.012 195.099 78.308 193.389 78.308Z" fill="#35598D"/>
<path d="M202.618 70.424H200.548V80H202.618V74.996C202.78 73.358 204.004 72.224 205.93 72.332V70.352C204.418 70.352 203.266 71.036 202.618 72.332V70.424Z" fill="#35598D"/>
<path d="M208.658 66.428C207.974 66.428 207.452 66.95 207.452 67.688C207.452 68.408 207.974 68.93 208.658 68.93C209.342 68.93 209.864 68.408 209.864 67.688C209.864 66.95 209.342 66.428 208.658 66.428ZM209.684 80V70.424H207.632V80H209.684Z" fill="#35598D"/>
<path d="M216.851 70.352C213.881 70.352 211.847 72.314 211.847 75.212C211.847 78.092 213.881 80.072 216.851 80.072C219.803 80.072 221.837 78.092 221.837 75.212C221.837 72.314 219.803 70.352 216.851 70.352ZM216.851 72.134C218.561 72.134 219.767 73.394 219.767 75.23C219.767 77.084 218.561 78.344 216.851 78.344C215.123 78.344 213.917 77.084 213.917 75.23C213.917 73.394 215.123 72.134 216.851 72.134Z" fill="#35598D"/>
<path d="M226.067 70.424H223.997V80H226.067V74.996C226.229 73.358 227.453 72.224 229.379 72.332V70.352C227.867 70.352 226.715 71.036 226.067 72.332V70.424Z" fill="#35598D"/>
<path d="M232.107 66.428C231.423 66.428 230.901 66.95 230.901 67.688C230.901 68.408 231.423 68.93 232.107 68.93C232.791 68.93 233.313 68.408 233.313 67.688C233.313 66.95 232.791 66.428 232.107 66.428ZM233.133 80V70.424H231.081V80H233.133Z" fill="#35598D"/>
<path d="M241.092 77.804C240.534 78.074 240.084 78.218 239.652 78.218C239.004 78.218 238.626 77.912 238.626 76.922V72.332H241.452V70.784H238.626V68.156H236.574V70.784H235.224V72.332H236.574V77.3C236.574 79.262 237.816 80.09 239.256 80.09C240.066 80.09 240.858 79.838 241.614 79.388L241.092 77.804Z" fill="#35598D"/>
<path d="M251.644 70.424H249.574L246.91 77.678L244.048 70.424H241.906L245.866 79.856L245.542 80.576C245.218 81.296 244.714 81.638 244.084 81.638C243.652 81.638 243.292 81.494 242.842 81.17L241.96 82.772C242.626 83.33 243.31 83.582 244.174 83.582C245.614 83.582 246.694 82.826 247.288 81.314L251.644 70.424Z" fill="#35598D"/>
<path d="M253.345 77.786C252.697 77.786 252.211 78.272 252.211 78.956C252.211 79.658 252.697 80.162 253.345 80.162C253.993 80.162 254.479 79.658 254.479 78.956C254.479 78.272 253.993 77.786 253.345 77.786Z" fill="#35598D"/>
<path d="M18.949 37.0837C15.6161 40.0662 11.6382 41.5574 7.01516 41.5574C4.21985 41.5574 2.22192 40.9645 1.02136 39.7787C0.340455 39.1319 0 37.991 0 36.356C0 33.8407 1.90834 32.2147 5.72502 31.478C6.92557 31.2444 8.36802 31.1277 10.0524 31.1277C11.7367 31.1277 14.0393 31.4421 16.96 32.0709C18.519 30.3281 20.3735 27.7678 22.5238 24.3901C24.6919 20.9943 26.4032 18.3801 27.6575 16.5475C28.9118 14.7149 30.3363 12.8463 31.9311 10.9418C33.5258 9.01939 35.1923 7.28558 36.9304 5.74043C40.4604 2.57825 43.9545 0.997163 47.4128 0.997163C48.9538 0.997163 50.0648 1.39244 50.7457 2.18298C51.4266 2.95556 51.7671 3.88085 51.7671 4.95887C51.7671 6.01891 51.2743 7.25863 50.2888 8.67801C49.3212 10.0974 48.1923 11.3551 46.9021 12.4511C45.6299 13.547 44.3666 14.4813 43.1123 15.2539C41.8759 16.0085 40.8994 16.3858 40.1826 16.3858C39.4659 16.3858 38.8477 16.0804 38.328 15.4695C37.8084 14.8586 37.5486 14.2747 37.5486 13.7177C37.5486 13.1428 37.6203 12.7475 37.7636 12.5319C37.9249 12.2983 38.0861 12.1816 38.2474 12.1816C38.4087 12.1816 38.5072 12.2804 38.5431 12.478C39.1165 12.2983 40.0303 11.7414 41.2846 10.8071C42.5569 9.85485 43.7126 8.86667 44.7519 7.84255C45.7912 6.81844 46.3108 6.18061 46.3108 5.92908C46.3108 5.65957 46.1496 5.52482 45.827 5.52482C45.5224 5.52482 45.1013 5.63262 44.5637 5.84823C44.0262 6.06383 43.3094 6.513 42.4135 7.19574C41.5176 7.86052 40.55 8.72293 39.5107 9.78298C37.0021 12.2983 34.2068 15.8648 31.1247 20.4823C30.408 21.5244 29.3956 23.0426 28.0875 25.0369C25.4176 29.0794 23.5093 31.8463 22.3625 33.3376C31.5548 35.7631 38.122 36.9759 42.0641 36.9759C43.8918 36.9759 45.173 36.7423 45.9076 36.2752C46.1764 36.1135 46.3556 36.0326 46.4452 36.0326C46.5348 36.0326 46.5796 36.1045 46.5796 36.2482C46.5796 36.392 46.499 36.6076 46.3377 36.895C46.1764 37.1825 45.7733 37.7934 45.1282 38.7277C44.501 39.6619 44.0351 40.2189 43.7305 40.3986C42.8525 40.9196 41.3563 41.1801 39.2419 41.1801C37.1454 41.1801 35.1385 41.0274 33.2212 40.722C31.3218 40.4165 29.7898 40.1201 28.6251 39.8326C27.4604 39.5272 25.7312 39.0421 23.4376 38.3773C21.162 37.7125 19.6657 37.2813 18.949 37.0837ZM9.13852 35.4397C6.79118 35.4397 5.6175 35.7182 5.6175 36.2752C5.6175 36.4908 5.81461 36.6794 6.20882 36.8411C6.62095 37.0028 7.10476 37.0837 7.66023 37.0837C9.39835 37.0837 11.0737 36.6255 12.6864 35.7092C11.3067 35.5296 10.1241 35.4397 9.13852 35.4397Z" fill="#35598D"/>
<path d="M63.8622 20.2936C63.8622 21.4794 63.3784 22.5215 62.4107 23.4199C61.4611 24.3182 60.377 24.7674 59.1585 24.7674C58.7643 24.7674 58.5045 24.6775 58.379 24.4979C58.2536 24.3002 58.1909 24.0487 58.1909 23.7433C58.1909 23.4378 58.2267 23.1414 58.2984 22.8539C57.6533 23.0695 56.9366 23.4019 56.1482 23.8511C55.3597 24.3002 54.3921 24.965 53.2453 25.8454C52.0986 26.7258 51.5252 27.3816 51.5252 27.8128C51.5252 27.9565 51.7312 28.0284 52.1433 28.0284C52.5734 28.0284 53.2274 27.8846 54.1054 27.5972C54.9835 27.2917 55.5927 27.139 55.9331 27.139C56.2915 27.139 56.5245 27.157 56.632 27.1929C56.8649 27.3187 57.1158 27.5972 57.3846 28.0284C57.6533 28.4416 57.7877 28.774 57.7877 29.0255C57.7877 29.2591 57.5548 29.5735 57.0889 29.9688C56.623 30.3641 56.0944 30.6695 55.5031 30.8851C54.9118 31.0827 54.5176 31.2355 54.3205 31.3433C50.5396 33.4634 48.6492 34.9187 48.6492 35.7092C48.6492 37.1106 49.8408 37.8113 52.224 37.8113C53.7471 37.8113 55.2791 37.3262 56.8201 36.356C58.1282 35.5296 59.3019 34.6941 60.3411 33.8496C61.3983 32.9872 62.0613 32.4572 62.3301 32.2596C62.6168 32.0619 62.8318 31.9631 62.9752 31.9631C63.4411 31.9631 63.674 32.4842 63.674 33.5262C63.674 34.5683 63.6113 35.26 63.4859 35.6014C63.3604 35.9248 63.0021 36.3291 62.4107 36.8142C58.5762 39.9404 54.9476 41.5035 51.5252 41.5035C49.6974 41.5035 48.2371 41.252 47.144 40.7489C45.1371 39.8326 44.1337 38.4312 44.1337 36.5447C44.1337 34.0652 45.8449 32.1877 49.2674 30.9121C48.5865 30.6066 48.1475 30.2203 47.9504 29.7532C47.7533 29.2681 47.6547 28.5045 47.6547 27.4624C47.6547 26.4024 48.1385 25.2884 49.1061 24.1206C50.0917 22.9348 51.2922 21.9645 52.7078 21.2099C55.8615 19.5031 58.6747 18.6496 61.1475 18.6496C61.7388 18.6496 62.3391 18.7934 62.9483 19.0809C63.5575 19.3683 63.8622 19.7726 63.8622 20.2936Z" fill="#35598D"/>
<path d="M71.1999 22.5574C72.938 21.3537 74.6402 20.4284 76.3067 19.7816C77.9731 19.1348 79.4156 18.8113 80.634 18.8113C81.8525 18.8113 82.632 19.1617 82.9724 19.8624C83.6713 19.0539 84.5403 18.6227 85.5796 18.5688C85.8842 18.5508 86.2605 18.5418 86.7085 18.5418C87.1564 18.5418 87.4342 18.6047 87.5417 18.7305C87.6492 18.8383 87.7478 19.0539 87.8374 19.3773C87.9269 19.7007 87.9807 19.8804 87.9986 19.9163C88.0165 19.9522 88.0255 20.0151 88.0255 20.105C88.0255 20.1768 87.9807 20.2757 87.8911 20.4014C87.8015 20.5092 87.694 20.617 87.5686 20.7248C87.4611 20.8326 87.3983 20.8955 87.3804 20.9135C83.4204 26.609 79.3708 33.104 75.2316 40.3986C79.4962 36.6076 83.3129 33.8856 86.6816 32.2326C86.8966 32.1248 87.1027 32.0709 87.2998 32.0709C87.5865 32.0709 87.7746 32.2596 87.8642 32.6369C87.9538 32.9962 87.9986 33.5173 87.9986 34.2C87.9986 34.8827 87.9538 35.305 87.8642 35.4667C87.7926 35.6284 87.3804 35.9518 86.6278 36.4369C85.8753 36.922 84.8987 37.5508 83.6981 38.3234C82.4976 39.096 81.2254 39.9494 79.8815 40.8837C76.6561 43.1296 74.0041 45.4922 71.9256 47.9716C69.2378 51.2236 67.3115 53.8468 66.1468 55.8411C65.7167 56.6137 64.991 57 63.9697 57C61.9449 57 60.9325 56.0388 60.9325 54.1163C60.9325 52.1579 61.8911 50.1546 63.8084 48.1064C65.2419 46.5792 66.5589 45.3305 67.7595 44.3603C68.96 43.3901 69.6141 42.8421 69.7216 42.7163C71.0476 40.722 72.8484 37.8922 75.124 34.227C73.1888 36.2572 71.3074 37.8742 69.4797 39.078C67.6699 40.2818 66.317 40.8837 65.4211 40.8837C62.6795 40.8837 61.3088 39.7069 61.3088 37.3532C61.3088 35.4846 61.7836 33.5981 62.7333 31.6936C63.683 29.7891 64.9014 28.0913 66.3887 26.6C67.8759 25.0908 69.4797 23.7433 71.1999 22.5574ZM81.4404 21.8567C79.3618 22.3059 77.4087 23.0515 75.581 24.0936C73.7533 25.1177 72.2481 26.2227 71.0655 27.4085C69.8828 28.5764 68.8615 29.7801 68.0014 31.0199C66.3887 33.3376 65.5824 35.1343 65.5824 36.4099C65.5824 36.7154 65.654 36.8681 65.7974 36.8681C65.9586 36.8681 66.2991 36.7064 66.8187 36.383C67.3563 36.0596 68.1089 35.5116 69.0765 34.739C70.0441 33.9485 71.1192 33.0142 72.3019 31.9362C75.0434 29.4028 78.0896 26.043 81.4404 21.8567Z" fill="#35598D"/>
<path d="M106.41 19.9702C107.772 19.9702 108.453 20.4374 108.453 21.3716C108.453 21.8747 108.336 22.243 108.103 22.4766C107.87 22.7102 107.369 23.4917 106.598 24.8213C105.846 26.1329 105.003 27.8218 104.072 29.8879C103.158 31.9362 102.567 33.6879 102.298 35.1433C102.244 35.3229 102.217 35.5745 102.217 35.8979C102.217 36.8861 102.486 37.3801 103.023 37.3801C103.561 37.3801 104.197 37.1286 104.932 36.6255C105.666 36.1045 106.32 35.5565 106.894 34.9816C107.467 34.3887 108.023 33.7868 108.56 33.1759C109.116 32.565 109.447 32.2147 109.555 32.1248C109.662 32.035 109.824 31.9901 110.039 31.9901C110.379 31.9901 110.585 32.2506 110.657 32.7716C110.728 33.2927 110.764 33.8317 110.764 34.3887C110.764 34.9456 110.711 35.3319 110.603 35.5475C110.083 36.5716 108.937 37.8024 107.163 39.2397C105.407 40.6771 103.803 41.3957 102.351 41.3957C100.918 41.3957 99.8608 40.9556 99.1799 40.0752C98.499 39.1948 98.1585 38.2246 98.1585 37.1645C98.1585 36.0865 98.3377 35.1433 98.6961 34.3348C97.2088 36.2752 95.4976 37.9192 93.5624 39.2667C91.6451 40.6142 90.0772 41.2879 88.8587 41.2879C87.6402 41.2879 86.6458 40.9196 85.8753 40.183C84.8897 39.2667 84.397 38 84.397 36.383C84.397 34.748 84.7553 33.113 85.4721 31.478C86.2068 29.8251 87.1654 28.3248 88.348 26.9773C89.5307 25.6118 90.8298 24.3721 92.2453 23.2582C95.2198 20.9225 97.9614 19.7546 100.47 19.7546C101.438 19.7546 102.226 19.9163 102.835 20.2397C103.445 20.5631 103.83 20.9674 103.991 21.4525C104.421 20.8057 104.779 20.4014 105.066 20.2397C105.371 20.06 105.819 19.9702 106.41 19.9702ZM102.835 22.9617C99.7712 22.9617 96.5996 24.6686 93.3205 28.0823C92.1558 29.304 91.0806 30.7683 90.0951 32.4752C89.1275 34.182 88.6437 35.3499 88.6437 35.9787C88.6437 36.6076 88.8229 36.922 89.1813 36.922C89.683 36.922 91.0806 35.9338 93.3742 33.9574C95.6678 31.9631 97.1909 30.4988 97.9435 29.5645C98.7677 28.5225 100.398 26.3215 102.835 22.9617Z" fill="#35598D"/>
<path d="M130.6 0C131.46 0 132.213 0.26052 132.858 0.78156C133.521 1.28463 133.853 2.03924 133.853 3.04539C133.853 4.05154 133.297 5.63262 132.186 7.78865C131.075 9.92671 129.74 12.1187 128.181 14.3645C126.622 16.5924 124.857 18.9641 122.886 21.4794C119.768 25.4681 116.776 29.0525 113.909 32.2326C113.891 32.4482 113.81 32.8525 113.667 33.4454C113.542 34.0203 113.479 34.6043 113.479 35.1972C113.479 35.7901 113.748 36.3291 114.285 36.8142C114.841 37.2813 115.522 37.5149 116.328 37.5149C117.134 37.5149 117.994 37.2274 118.908 36.6525C119.84 36.0775 120.646 35.4397 121.327 34.739C123.119 32.8884 124.23 31.9631 124.66 31.9631C125.09 31.9631 125.305 32.6189 125.305 33.9305V34.4695C125.305 35.1702 125.18 35.6823 124.929 36.0057C123.424 37.8563 121.731 39.2397 119.849 40.156C117.968 41.0544 116.185 41.5035 114.5 41.5035C112.816 41.5035 111.535 40.9915 110.657 39.9674C109.779 38.9253 109.34 37.5059 109.34 35.7092C109.34 32.2057 110.272 28.0913 112.135 23.366C114.017 18.6227 116.131 14.5891 118.478 11.2652C123.764 3.75508 127.805 0 130.6 0ZM129.391 4.47376C129.391 4.20426 129.301 4.0695 129.122 4.0695C128.495 4.0695 126.846 5.86619 124.176 9.45957C121.507 13.053 119.571 15.9187 118.371 18.0567C117.188 20.1948 116.068 22.8809 115.011 26.1149C117.125 23.5995 120.046 19.6827 123.773 14.3645C127.518 9.02837 129.391 5.73144 129.391 4.47376Z" fill="#35598D"/>
<path d="M147.802 14.095C147.802 15.2629 149.836 15.8468 153.904 15.8468C154.907 15.8468 155.651 15.739 156.134 15.5234C157.407 14.9125 158.966 14.6071 160.811 14.6071C162.675 14.6071 163.606 15.0832 163.606 16.0355C163.606 16.4128 163.445 16.9697 163.123 17.7064C162.818 18.4251 162.585 18.8652 162.424 19.027C162.28 19.1887 161.707 19.4132 160.704 19.7007C159.7 19.9702 159.046 20.1229 158.742 20.1589C158.455 20.1768 158.258 20.1948 158.15 20.2128C158.061 20.2307 157.944 20.2487 157.801 20.2667C157.675 20.2846 157.38 20.3385 156.914 20.4284C156.448 20.5002 156.108 20.4913 155.892 20.4014C149.961 23.33 145.885 26.5461 143.663 30.0496C142.66 31.6307 142.158 32.9872 142.158 34.1192C142.158 35.8979 143.385 36.7872 145.84 36.7872C147.757 36.7872 150.194 36.0326 153.151 34.5234C156.108 33.0142 158.724 31.1905 160.999 29.0525C163.293 26.8965 164.44 25.0279 164.44 23.4468C164.44 22.9437 164.816 22.6922 165.569 22.6922C167.307 22.6922 168.176 23.7253 168.176 25.7915C168.176 26.7617 167.755 27.9206 166.912 29.2681C166.07 30.5976 164.897 31.9541 163.391 33.3376C161.886 34.7031 160.211 35.9787 158.365 37.1645C156.52 38.3504 154.468 39.3206 152.21 40.0752C149.97 40.8298 148.071 41.2071 146.512 41.2071C144.953 41.2071 143.69 41.0544 142.722 40.7489C141.773 40.4615 140.877 40.0213 140.034 39.4284C138.207 38.1527 137.293 36.2213 137.293 33.634C137.293 32.2326 137.669 30.8132 138.422 29.3759C139.174 27.9206 140.16 26.6 141.378 25.4142C143.618 23.1863 146.019 21.3357 148.582 19.8624C144.89 19.018 143.045 17.1135 143.045 14.1489C143.045 10.8071 145.607 7.75272 150.732 4.98582C153.581 3.45863 156.672 2.36265 160.005 1.69787C161.582 1.37447 162.899 1.21277 163.956 1.21277C166.106 1.21277 167.728 1.38345 168.821 1.72482C169.484 2.04823 170.021 2.50638 170.433 3.09929C170.846 3.67423 171.052 4.17731 171.052 4.60851C171.052 5.02175 170.998 5.39905 170.89 5.74043C170.783 6.0818 170.604 6.3513 170.353 6.54894C169.994 6.81844 169.591 7.02506 169.143 7.16879C168.695 7.31253 168.436 7.40236 168.364 7.4383C166.966 8.03121 165.766 8.32766 164.762 8.32766C162.97 8.32766 161.994 8.09409 161.833 7.62695C161.868 7.15981 162.065 6.6208 162.424 6.00993C160.722 6.0818 158.957 6.43215 157.129 7.06099C155.301 7.67187 153.715 8.39953 152.371 9.24397C151.045 10.0704 149.952 10.9329 149.092 11.8312C148.232 12.7296 147.802 13.4842 147.802 14.095Z" fill="#35598D"/>
<path d="M181.104 36.3021C181.104 37.0927 181.642 37.4879 182.717 37.4879C183.29 37.4879 184.007 37.2005 184.867 36.6255C185.745 36.0506 186.533 35.4218 187.232 34.739C189.096 32.8884 190.153 31.9631 190.404 31.9631C190.87 31.9631 191.103 32.6369 191.103 33.9844C191.103 35.3319 190.682 36.2572 189.839 36.7603C187.277 39.078 185.297 40.4884 183.899 40.9915C183.111 41.261 182.242 41.3868 181.292 41.3688C180.343 41.3508 179.402 40.9376 178.47 40.1291C177.538 39.3206 177.072 38.3414 177.072 37.1915C177.072 36.0236 177.377 34.7031 177.986 33.2298C178.595 31.7565 179.214 30.4988 179.841 29.4567C180.486 28.3967 181.274 27.1749 182.206 25.7915C183.138 24.3901 183.631 23.5187 183.684 23.1773L183.631 23.1234C183.039 23.1773 181.57 24.3452 179.223 26.627C176.893 28.9087 174.967 30.8941 173.444 32.583C171.921 34.2719 170.102 36.5267 167.988 39.3475C167.396 40.1201 166.912 40.5064 166.536 40.5064C166.16 40.5064 165.658 40.3896 165.031 40.156C164.386 39.9045 163.992 39.7248 163.848 39.617C163.705 39.5092 163.633 39.3475 163.633 39.1319C163.633 38.9163 163.696 38.6558 163.821 38.3504C163.947 38.027 164.072 37.7664 164.198 37.5688C164.305 37.3532 164.493 37.0298 164.762 36.5986C165.031 36.1674 165.56 35.26 166.348 33.8766C167.154 32.4752 168.382 30.391 170.03 27.6241C171.679 24.8572 172.664 23.1863 172.987 22.6113C173.668 21.4255 174.223 20.5631 174.653 20.0241C175.46 19 176.821 18.4879 178.739 18.4879C179.169 18.4879 179.384 18.7574 179.384 19.2965C179.384 20.1409 178.604 21.731 177.045 24.0667L175.917 25.7645C179.017 22.3149 181.633 20.1319 183.765 19.2156C184.804 18.7664 185.736 18.5418 186.56 18.5418C187.402 18.5418 188.065 18.7664 188.549 19.2156C189.051 19.6648 189.302 20.1678 189.302 20.7248C189.302 21.2638 189.114 21.9196 188.737 22.6922C188.361 23.4468 187.976 24.1296 187.582 24.7404C187.205 25.3333 186.704 26.0879 186.076 27.0043C185.449 27.9206 185.109 28.4236 185.055 28.5135C185.001 28.5853 184.858 28.8009 184.625 29.1603C184.41 29.5017 184.249 29.7532 184.141 29.9149C184.034 30.0766 183.855 30.3641 183.604 30.7773C183.353 31.1726 183.147 31.505 182.986 31.7745C182.842 32.044 182.654 32.3764 182.421 32.7716C182.206 33.1669 182.027 33.5083 181.884 33.7957C181.758 34.0832 181.624 34.3976 181.48 34.739C181.229 35.3679 181.104 35.8889 181.104 36.3021Z" fill="#35598D"/>
<path d="M196.935 22.5574C198.673 21.3537 200.376 20.4284 202.042 19.7816C203.708 19.1348 205.151 18.8113 206.369 18.8113C207.588 18.8113 208.367 19.1617 208.708 19.8624C209.407 19.0539 210.276 18.6227 211.315 18.5688C211.62 18.5508 211.996 18.5418 212.444 18.5418C212.892 18.5418 213.17 18.6047 213.277 18.7305C213.385 18.8383 213.483 19.0539 213.573 19.3773C213.662 19.7007 213.716 19.8804 213.734 19.9163C213.752 19.9522 213.761 20.0151 213.761 20.105C213.761 20.1768 213.716 20.2757 213.626 20.4014C213.537 20.5092 213.429 20.617 213.304 20.7248C213.196 20.8326 213.134 20.8955 213.116 20.9135C209.156 26.609 205.106 33.104 200.967 40.3986C205.232 36.6076 209.048 33.8856 212.417 32.2326C212.632 32.1248 212.838 32.0709 213.035 32.0709C213.322 32.0709 213.51 32.2596 213.6 32.6369C213.689 32.9962 213.734 33.5173 213.734 34.2C213.734 34.8827 213.689 35.305 213.6 35.4667C213.528 35.6284 213.116 35.9518 212.363 36.4369C211.611 36.922 210.634 37.5508 209.433 38.3234C208.233 39.096 206.961 39.9494 205.617 40.8837C202.391 43.1296 199.739 45.4922 197.661 47.9716C194.973 51.2236 193.047 53.8468 191.882 55.8411C191.452 56.6137 190.726 57 189.705 57C187.68 57 186.668 56.0388 186.668 54.1163C186.668 52.1579 187.626 50.1546 189.544 48.1064C190.977 46.5792 192.294 45.3305 193.495 44.3603C194.695 43.3901 195.349 42.8421 195.457 42.7163C196.783 40.722 198.584 37.8922 200.859 34.227C198.924 36.2572 197.043 37.8742 195.215 39.078C193.405 40.2818 192.052 40.8837 191.156 40.8837C188.415 40.8837 187.044 39.7069 187.044 37.3532C187.044 35.4846 187.519 33.5981 188.469 31.6936C189.418 29.7891 190.637 28.0913 192.124 26.6C193.611 25.0908 195.215 23.7433 196.935 22.5574ZM207.176 21.8567C205.097 22.3059 203.144 23.0515 201.316 24.0936C199.489 25.1177 197.983 26.2227 196.801 27.4085C195.618 28.5764 194.597 29.7801 193.737 31.0199C192.124 33.3376 191.318 35.1343 191.318 36.4099C191.318 36.7154 191.389 36.8681 191.533 36.8681C191.694 36.8681 192.034 36.7064 192.554 36.383C193.092 36.0596 193.844 35.5116 194.812 34.739C195.779 33.9485 196.855 33.0142 198.037 31.9362C200.779 29.4028 203.825 26.043 207.176 21.8567Z" fill="#35598D"/>
<path d="M234.403 31.9901C234.744 31.9901 234.95 32.2506 235.021 32.7716C235.093 33.2927 235.129 33.8317 235.129 34.3887C235.129 34.9456 235.075 35.3319 234.968 35.5475C234.448 36.5537 233.31 37.7844 231.554 39.2397C229.798 40.6771 228.132 41.3957 226.555 41.3957C225.587 41.3957 224.691 41.0993 223.867 40.5064C223.043 39.9314 222.631 38.9163 222.631 37.461C222.631 36.0057 223.016 34.5773 223.786 33.1759C219.343 38.7636 215.857 41.5574 213.331 41.5574C212.327 41.5574 211.512 41.1981 210.885 40.4794C210.276 39.7608 209.971 39.0241 209.971 38.2695C209.971 37.4969 210.079 36.7064 210.294 35.8979C210.509 35.0714 210.733 34.3348 210.966 33.6879C211.216 33.0411 211.575 32.2416 212.041 31.2894C212.524 30.3371 212.883 29.6454 213.116 29.2142C213.349 28.783 213.716 28.1362 214.218 27.2738C214.737 26.3934 215.409 25.2165 216.234 23.7433C217.076 22.27 217.766 21.183 218.303 20.4823C218.859 19.7636 219.396 19.4043 219.916 19.4043C220.436 19.3863 220.892 19.5929 221.287 20.0241C221.681 20.4553 221.878 20.8057 221.878 21.0752C221.878 21.3447 221.278 22.5574 220.077 24.7135C216.529 31.1456 214.755 34.8917 214.755 35.9518C214.755 36.2213 214.854 36.356 215.051 36.356C215.911 36.356 218.052 34.4875 221.475 30.7504C224.897 27.0132 226.877 24.6236 227.415 23.5816C227.952 22.5215 228.472 21.6322 228.974 20.9135C229.493 20.1948 229.879 19.7546 230.13 19.5929C230.9 19.0898 231.895 18.8203 233.113 18.7844C233.31 18.7844 233.462 18.7934 233.57 18.8113C233.677 18.8293 233.803 18.982 233.946 19.2695C234.09 19.557 234.161 19.7816 234.161 19.9433C234 20.4463 233.283 21.7849 232.011 23.9589C230.757 26.1329 230.058 27.3636 229.915 27.6511C227.8 32.035 226.743 34.8917 226.743 36.2213C226.743 36.9759 227.03 37.3532 227.603 37.3532C228.642 37.2095 229.897 36.374 231.366 34.8468C231.904 34.2898 232.432 33.7239 232.952 33.1489C233.489 32.574 233.821 32.2416 233.946 32.1518C234.072 32.044 234.224 31.9901 234.403 31.9901Z" fill="#35598D"/>
<path d="M255.691 0C256.551 0 257.303 0.26052 257.948 0.78156C258.611 1.28463 258.943 2.03924 258.943 3.04539C258.943 4.05154 258.387 5.63262 257.276 7.78865C256.165 9.92671 254.83 12.1187 253.272 14.3645C251.713 16.5924 249.948 18.9641 247.977 21.4794C244.859 25.4681 241.866 29.0525 238.999 32.2326C238.981 32.4482 238.901 32.8525 238.757 33.4454C238.632 34.0203 238.569 34.6043 238.569 35.1972C238.569 35.7901 238.838 36.3291 239.376 36.8142C239.931 37.2813 240.612 37.5149 241.418 37.5149C242.225 37.5149 243.085 37.2274 243.999 36.6525C244.93 36.0775 245.737 35.4397 246.418 34.739C248.21 32.8884 249.32 31.9631 249.751 31.9631C250.181 31.9631 250.396 32.6189 250.396 33.9305V34.4695C250.396 35.1702 250.27 35.6823 250.019 36.0057C248.514 37.8563 246.821 39.2397 244.939 40.156C243.058 41.0544 241.275 41.5035 239.591 41.5035C237.906 41.5035 236.625 40.9915 235.747 39.9674C234.869 38.9253 234.43 37.5059 234.43 35.7092C234.43 32.2057 235.362 28.0913 237.225 23.366C239.107 18.6227 241.221 14.5891 243.569 11.2652C248.855 3.75508 252.895 0 255.691 0ZM254.481 4.47376C254.481 4.20426 254.391 4.0695 254.212 4.0695C253.585 4.0695 251.937 5.86619 249.267 9.45957C246.597 13.053 244.662 15.9187 243.461 18.0567C242.278 20.1948 241.159 22.8809 240.101 26.1149C242.216 23.5995 245.136 19.6827 248.864 14.3645C252.609 9.02837 254.481 5.73144 254.481 4.47376Z" fill="#35598D"/>
<path d="M246.095 31.7745L245.88 31.0199C245.88 30.8761 245.952 30.7593 246.095 30.6695C246.238 30.5617 246.418 30.3551 246.633 30.0496C246.866 29.7442 247.027 29.5466 247.116 29.4567C247.224 29.3669 247.367 29.2411 247.547 29.0794C247.744 28.8998 247.905 28.756 248.03 28.6482C248.389 28.3428 248.64 28.1721 248.783 28.1362C248.926 28.0823 249.177 28.0014 249.535 27.8936C250.646 27.5343 251.587 27.2827 252.358 27.139C256.927 19.4851 260.591 13.5021 263.351 9.19007C266.128 4.86005 267.705 2.47045 268.081 2.02128C268.476 1.55414 269.165 1.1409 270.151 0.78156C271.136 0.422222 271.853 0.251537 272.301 0.269504C272.767 0.269504 273 0.467139 273 0.862411C273 1.02411 272.937 1.23972 272.812 1.50922C272.704 1.77872 271.728 3.36879 269.882 6.27943C263.055 17.0057 258.683 23.9589 256.766 27.139L257.438 27.3816C261.595 26.609 263.754 26.2227 263.915 26.2227C264.094 26.2227 264.524 26.3485 265.205 26.6C265.904 26.8336 266.361 26.9683 266.576 27.0043C266.988 27.0761 267.194 27.4175 267.194 28.0284C267.194 28.6213 267.006 28.9537 266.63 29.0255C266.325 29.0794 265.591 29.2591 264.426 29.5645C263.279 29.852 262.356 30.0766 261.657 30.2383C262.607 31.3702 263.082 32.574 263.082 33.8496C263.082 35.1253 262.518 36.8142 261.389 38.9163C260.26 41.0005 258.817 43.0667 257.061 45.1149C255.305 47.1631 253.46 49.0946 251.524 50.9092C249.607 52.7239 247.762 54.1882 245.988 55.3021C244.214 56.434 242.906 57 242.063 57C241.203 57 240.442 56.7664 239.779 56.2993C239.098 55.8501 238.757 55.1764 238.757 54.278C238.757 53.3797 238.946 52.3286 239.322 51.1248C239.68 49.939 240.074 48.843 240.504 47.8369C240.935 46.8487 241.669 45.4203 242.708 43.5518C243.819 41.5395 245.826 38.0988 248.729 33.2298C248.227 33.3196 247.842 33.3645 247.573 33.3645C247.305 33.3645 247.054 33.3017 246.821 33.1759C246.588 33.0501 246.427 32.8884 246.337 32.6908C246.176 32.3314 246.095 32.026 246.095 31.7745ZM253.648 43.3901C254.992 41.827 256.121 40.192 257.034 38.4851C257.948 36.7603 258.405 35.3589 258.405 34.2809C258.405 33.1849 257.877 32.2236 256.819 31.3972L253.836 32.0709C253.531 32.574 253.057 33.3735 252.411 34.4695C251.784 35.5475 251.265 36.4279 250.853 37.1106C250.458 37.7934 249.948 38.6738 249.32 39.7518C248.693 40.8298 248.165 41.7371 247.735 42.4738C247.323 43.2104 246.857 44.0369 246.337 44.9532C245.835 45.8875 245.423 46.678 245.101 47.3248C244.76 47.9896 244.438 48.6454 244.133 49.2922C243.542 50.5499 243.246 51.3674 243.246 51.7447C243.246 52.122 243.345 52.3106 243.542 52.3106C243.9 52.3106 244.644 51.8974 245.773 51.0709C246.884 50.2624 248.138 49.1664 249.535 47.783C250.951 46.4175 252.322 44.9532 253.648 43.3901Z" fill="#35598D"/>
</svg>
