<svg width="82" height="82" viewBox="0 0 82 82" fill="none" xmlns="http://www.w3.org/2000/svg">
<rect width="82" height="82" rx="15" fill="#35598D"/>
<path d="M66.0071 45.9432C66.0071 47.0888 65.7815 48.2231 65.3431 49.2815C64.9047 50.3399 64.2621 51.3015 63.4521 52.1116C62.642 52.9216 61.6804 53.5642 60.622 54.0026C59.5636 54.441 58.4293 54.6666 57.2837 54.6666C56.1381 54.6666 55.0038 54.441 53.9454 54.0026C52.887 53.5642 51.9254 52.9216 51.1153 52.1116C50.3053 51.3015 49.6627 50.3399 49.2243 49.2815C48.7859 48.2231 48.5603 47.0888 48.5603 45.9432H66.0071Z" fill="white"/>
<path d="M34.3121 45.9432C34.3121 47.0888 34.0864 48.2231 33.648 49.2815C33.2097 50.3399 32.5671 51.3015 31.757 52.1116C30.947 52.9216 29.9853 53.5642 28.927 54.0026C27.8686 54.441 26.7342 54.6666 25.5887 54.6666C24.4431 54.6666 23.3087 54.441 22.2504 54.0026C21.192 53.5642 20.2303 52.9216 19.4203 52.1116C18.6102 51.3015 17.9677 50.3399 17.5293 49.2815C17.0909 48.2231 16.8653 47.0888 16.8653 45.9432H34.3121Z" fill="white"/>
<path d="M39.2553 15.9929H42.7447V65.4255H39.2553V15.9929Z" fill="white"/>
<path d="M23.5532 24.4255V20.9361H58.156V24.4255H23.5532Z" fill="white"/>
<path d="M33.4397 67.1702V63.6808H48.2695V67.1702H33.4397Z" fill="white"/>
<path d="M54.9575 21.7624L58.0475 20.9361L64.99 46.8995L61.9 47.7258L54.9575 21.7624Z" fill="white"/>
<path d="M54.9203 20.9361L58.0515 21.5892L52.5638 47.8986L49.4326 47.2455L54.9203 20.9361Z" fill="white"/>
<path d="M23.516 20.9361L26.6472 21.5892L21.1596 47.8986L18.0284 47.2455L23.516 20.9361Z" fill="white"/>
<path d="M23.5532 22.0532L26.6432 21.2269L33.5858 47.1903L30.4958 48.0166L23.5532 22.0532Z" fill="white"/>
</svg>
