<svg width="257" height="72" viewBox="0 0 257 72" fill="none" xmlns="http://www.w3.org/2000/svg">
<path d="M17.0031 32.5295C14.0125 35.1458 10.443 36.4539 6.29476 36.4539C3.78651 36.4539 1.99374 35.9338 0.916479 34.8936C0.305493 34.3262 0 33.3255 0 31.8913C0 29.6848 1.71237 28.2585 5.13711 27.6123C6.21437 27.4074 7.5087 27.305 9.02008 27.305C10.5315 27.305 12.5976 27.5808 15.2184 28.1324C16.6172 26.6036 18.2813 24.3578 20.2108 21.3948C22.1563 18.4161 23.6918 16.1229 24.8173 14.5154C25.9428 12.9078 27.221 11.2687 28.652 9.59811C30.083 7.91174 31.5783 6.39086 33.138 5.03546C36.3054 2.26162 39.4408 0.874704 42.5439 0.874704C43.9267 0.874704 44.9235 1.22143 45.5345 1.91489C46.1455 2.59259 46.451 3.40426 46.451 4.34988C46.451 5.27975 46.0089 6.36722 45.1245 7.61229C44.2563 8.85737 43.2433 9.9606 42.0857 10.922C40.9441 11.8834 39.8106 12.7029 38.6851 13.3806C37.5756 14.0426 36.6994 14.3735 36.0562 14.3735C35.4131 14.3735 34.8584 14.1056 34.3921 13.5697C33.9258 13.0339 33.6927 12.5217 33.6927 12.0331C33.6927 11.5288 33.757 11.182 33.8856 10.9929C34.0303 10.788 34.175 10.6856 34.3197 10.6856C34.4644 10.6856 34.5529 10.7723 34.585 10.9456C35.0995 10.788 35.9195 10.2994 37.045 9.47991C38.1866 8.6446 39.2237 7.77778 40.1562 6.87943C41.0888 5.98109 41.5551 5.42159 41.5551 5.20095C41.5551 4.96454 41.4104 4.84634 41.121 4.84634C40.8476 4.84634 40.4698 4.9409 39.9874 5.13002C39.5051 5.31915 38.8619 5.71316 38.058 6.31206C37.2541 6.89519 36.3858 7.65169 35.4533 8.58156C33.2023 10.788 30.694 13.9165 27.9285 17.9669C27.2853 18.881 26.3769 20.2128 25.2032 21.9622C22.8075 25.5083 21.0951 27.9354 20.0661 29.2435C28.3144 31.3712 34.2072 32.435 37.7445 32.435C39.3845 32.435 40.5341 32.2301 41.1933 31.8203C41.4345 31.6785 41.5953 31.6076 41.6757 31.6076C41.7561 31.6076 41.7963 31.6706 41.7963 31.7967C41.7963 31.9228 41.7239 32.1119 41.5792 32.3641C41.4345 32.6162 41.0727 33.1521 40.4939 33.9716C39.9311 34.7912 39.5131 35.2797 39.2398 35.4374C38.4519 35.8944 37.1094 36.1229 35.2121 36.1229C33.3309 36.1229 31.5301 35.989 29.8097 35.721C28.1054 35.4531 26.7306 35.1931 25.6855 34.9409C24.6404 34.673 23.0888 34.2474 21.0308 33.6643C18.9888 33.0812 17.6462 32.7029 17.0031 32.5295ZM8.20008 31.0875C6.09378 31.0875 5.04063 31.3318 5.04063 31.8203C5.04063 32.0095 5.2175 32.1749 5.57123 32.3168C5.94103 32.4586 6.37516 32.5295 6.87359 32.5295C8.43321 32.5295 9.93656 32.1277 11.3836 31.3239C10.1456 31.1663 9.0844 31.0875 8.20008 31.0875Z" fill="#2F5488"/>
<path d="M57.3041 17.8014C57.3041 18.8416 56.8699 19.7557 56.0017 20.5437C55.1495 21.3318 54.1768 21.7258 53.0834 21.7258C52.7297 21.7258 52.4966 21.647 52.384 21.4894C52.2715 21.316 52.2152 21.0954 52.2152 20.8274C52.2152 20.5595 52.2473 20.2994 52.3117 20.0473C51.7328 20.2364 51.0897 20.528 50.3822 20.922C49.6748 21.316 48.8065 21.8991 47.7775 22.6714C46.7485 23.4437 46.234 24.0189 46.234 24.3972C46.234 24.5232 46.4189 24.5863 46.7887 24.5863C47.1745 24.5863 47.7614 24.4602 48.5493 24.208C49.3371 23.9401 49.8838 23.8061 50.1893 23.8061C50.5109 23.8061 50.7199 23.8219 50.8163 23.8534C51.0254 23.9637 51.2505 24.208 51.4916 24.5863C51.7328 24.9488 51.8534 25.2403 51.8534 25.461C51.8534 25.6659 51.6444 25.9417 51.2263 26.2884C50.8083 26.6351 50.334 26.9031 49.8034 27.0922C49.2728 27.2656 48.9191 27.3995 48.7422 27.4941C45.3496 29.3538 43.6533 30.6304 43.6533 31.3239C43.6533 32.5532 44.7226 33.1678 46.861 33.1678C48.2277 33.1678 49.6024 32.7423 50.9852 31.8913C52.1589 31.1663 53.2121 30.4334 54.1446 29.6927C55.0933 28.9362 55.6882 28.4712 55.9293 28.2979C56.1866 28.1245 56.3795 28.0378 56.5082 28.0378C56.9262 28.0378 57.1352 28.4949 57.1352 29.409C57.1352 30.3231 57.079 30.9299 56.9664 31.2293C56.8539 31.513 56.5323 31.8676 56.0017 32.2931C52.5609 35.0355 49.305 36.4066 46.234 36.4066C44.5939 36.4066 43.2835 36.186 42.3027 35.7447C40.5019 34.9409 39.6015 33.7116 39.6015 32.0567C39.6015 29.8818 41.137 28.2348 44.208 27.1158C43.5971 26.8479 43.2031 26.5091 43.0263 26.0993C42.8494 25.6738 42.761 25.0039 42.761 24.0898C42.761 23.16 43.1951 22.1828 44.0633 21.1584C44.9477 20.1182 46.0249 19.2671 47.2951 18.6052C50.125 17.108 52.6493 16.3593 54.8681 16.3593C55.3987 16.3593 55.9374 16.4854 56.484 16.7376C57.0307 16.9898 57.3041 17.3444 57.3041 17.8014Z" fill="#2F5488"/>
<path d="M72.9807 5.03546L73.9695 5.27187C74.1142 5.27187 74.2428 5.34279 74.3554 5.48463C74.4679 5.62648 74.5242 5.76044 74.5242 5.88652C74.5242 6.01261 74.3554 6.35146 74.0177 6.90307C73.6801 7.45469 73.2781 8.08511 72.8118 8.79433C72.3616 9.48779 72.1205 9.86604 72.0883 9.92908C73.3424 9.83451 74.2268 9.78723 74.7413 9.78723C75.2719 9.78723 75.6336 9.82663 75.8266 9.90544C76.0195 9.96848 76.2366 10.1655 76.4778 10.4965C76.735 10.8117 76.9682 11.0559 77.1772 11.2293C77.3862 11.3869 77.4907 11.6312 77.4907 11.9622C77.4907 12.2931 77.2817 12.5768 76.8636 12.8132C76.4617 13.0339 76.0276 13.1678 75.5613 13.2151C71.831 13.5776 69.773 13.7667 69.3871 13.7825C68.0847 15.7368 66.2598 18.7864 63.9123 22.9314C61.581 27.0607 60.3429 29.6454 60.1982 30.6856C60.1339 31.1584 60.1017 31.5445 60.1017 31.844C60.1017 32.4586 60.4313 32.766 61.0906 32.766C61.7498 32.766 62.4814 32.5217 63.2853 32.0331C64.0892 31.5288 64.8288 30.985 65.5041 30.4019C67.3049 28.8258 68.2696 28.0378 68.3983 28.0378C68.8163 28.0378 69.0253 28.747 69.0253 30.1655C69.0253 30.9377 68.6636 31.6312 67.94 32.2459C66.3161 33.617 64.9494 34.6493 63.84 35.3428C62.7306 36.0362 61.6212 36.383 60.5117 36.383C60.2705 36.383 60.0455 36.3593 59.8364 36.3121C58.5501 36.0756 57.6015 35.6186 56.9905 34.9409C56.3956 34.2474 56.0982 33.3176 56.0982 32.1513C56.1142 30.985 56.468 29.5745 57.1593 27.9196C57.8668 26.249 58.7511 24.476 59.8123 22.6005C61.5488 19.5429 63.2853 16.6745 65.0218 13.9953L64.1053 14.1135C62.2402 14.3184 61.1549 14.4208 60.8494 14.4208H60.6323C60.166 14.4208 59.7158 14.3341 59.2817 14.1608C58.8476 13.9716 58.6305 13.7431 58.6305 13.4752C58.6305 13.2072 58.7431 12.9472 58.9682 12.695C59.2094 12.4429 59.3541 12.2459 59.4023 12.104C59.5149 11.7573 59.9329 11.3712 60.6564 10.9456C61.396 10.5201 61.9508 10.2994 62.3206 10.2837C62.6904 10.2522 63.0441 10.2285 63.3818 10.2128C63.7355 10.197 64.1214 10.1812 64.5394 10.1655C64.9735 10.1497 65.3031 10.134 65.5282 10.1182L67.6989 10.0236C69.0495 8.03782 69.974 6.76123 70.4724 6.19385C70.9869 5.62648 71.2844 5.31915 71.3648 5.27187C71.4452 5.20883 71.6059 5.1773 71.8471 5.1773L72.9807 5.03546Z" fill="#2F5488"/>
<path d="M80.7466 3.85343C81.5988 3.85343 82.2178 4.08195 82.6037 4.53901C83.0057 4.99606 83.2066 5.59496 83.2066 6.3357C83.2066 7.07644 82.9333 7.80142 82.3866 8.51064C81.856 9.21986 81.0521 9.96848 79.9748 10.7565C78.9137 11.5288 78.1258 11.9149 77.6113 11.9149C77.0968 11.9149 76.735 11.8203 76.526 11.6312C76.3331 11.4421 76.1803 11.3318 76.0678 11.3002C75.9552 11.2687 75.8989 11.1348 75.8989 10.8983C75.8989 10.6462 75.9632 10.4728 76.0919 10.3783C76.2205 10.2837 76.5421 9.87392 77.0566 9.14894C77.5872 8.40819 77.9007 7.91962 77.9972 7.68321C77.7399 7.44681 77.6113 7.06856 77.6113 6.54846C77.6113 6.01261 77.9168 5.42947 78.5278 4.79905C79.1548 4.16864 79.8945 3.85343 80.7466 3.85343Z" fill="#2F5488"/>
<path d="M77.0325 30.7565L77.0084 31.1348C77.0084 31.5288 77.1611 31.8676 77.4666 32.1513C77.7721 32.435 78.0535 32.5768 78.3107 32.5768C80.2401 32.5768 81.9445 32.2931 83.4237 31.7258C84.919 31.1584 85.6667 30.591 85.6667 30.0236C85.6667 29.7557 85.3933 29.5272 84.8467 29.3381C84.3161 29.1332 83.4076 28.8889 82.1213 28.6052C80.8511 28.3058 79.9266 28.0772 79.3478 27.9196C78.769 27.7463 78.3107 27.5887 77.9731 27.4468C77.6354 27.305 77.2897 27.108 76.936 26.8558C76.1803 26.3357 75.8025 25.5634 75.8025 24.539C75.8025 23.4988 76.1883 22.4744 76.9601 21.4657C77.748 20.4413 78.7288 19.5666 79.9025 18.8416C81.0762 18.1166 82.3384 17.4783 83.689 16.9267C86.358 15.8392 88.601 15.2955 90.4179 15.2955C92.2026 15.2955 93.304 15.6738 93.722 16.4303C93.8507 16.6982 93.915 16.9976 93.915 17.3286V17.4941C93.915 18.3294 93.7301 18.9834 93.3603 19.4563C93.0065 19.9291 92.4357 20.3546 91.6479 20.7329C90.8761 21.1111 90.2571 21.3002 89.7908 21.3002C89.3406 21.3002 89.0512 21.2687 88.9226 21.2057C88.81 21.1426 88.7136 21.0638 88.6332 20.9693C88.5528 20.8589 88.4483 20.7801 88.3196 20.7329C88.2071 20.6856 88.1508 20.5674 88.1508 20.3783C88.1508 20.1891 88.2312 20 88.392 19.8109C88.5528 19.606 88.6653 19.3932 88.7296 19.1726C87.6684 19.2199 86.559 19.4641 85.4014 19.9054C84.2437 20.331 83.2468 20.8117 82.4108 21.3475C81.5907 21.8834 80.9074 22.3956 80.3607 22.8842C79.8141 23.3727 79.5407 23.7352 79.5407 23.9716C79.5407 24.1923 79.9105 24.3735 80.6501 24.5154C83.9784 25.1615 86.1651 25.721 87.2102 26.1939C88.2553 26.6667 88.9789 27.2025 89.3808 27.8014C89.7828 28.4003 89.9838 28.944 89.9838 29.4326C89.9838 30.4413 89.5738 31.3948 88.7538 32.2931C87.9337 33.1915 86.9208 33.9243 85.7149 34.4917C83.1263 35.7368 80.8672 36.3593 78.9378 36.3593C77.0244 36.3593 75.6979 36.0678 74.9583 35.4846C74.2348 34.9173 73.873 34.2396 73.873 33.4515C73.873 32.6635 74.074 31.9385 74.476 31.2766C74.894 30.5989 75.4246 30.26 76.0678 30.26C76.7109 30.26 77.0325 30.4255 77.0325 30.7565Z" fill="#2F5488"/>
<path d="M104.672 11.2766L105.371 11.1111C105.467 11.1111 105.516 11.2057 105.516 11.3948C105.516 11.5682 105.234 11.8597 104.672 12.2695C104.125 12.6793 103.458 12.8842 102.67 12.8842C101.898 12.8842 101.287 12.6635 100.837 12.2222C100.403 11.7809 100.186 11.2057 100.186 10.4965C100.186 8.99921 101.182 7.51773 103.176 6.05201C105.17 4.57053 107.622 3.38849 110.532 2.50591C113.442 1.60756 116.232 1.15839 118.901 1.15839C122.808 1.15839 125.71 1.78093 127.608 3.026C129.521 4.27108 130.478 5.94169 130.478 8.03782C130.478 10.7171 128.58 13.3097 124.786 15.8156C122.792 17.1395 120.638 18.1954 118.322 18.9834C120.863 19.2514 122.889 20.0552 124.4 21.3948C125.542 22.4035 126.112 23.6879 126.112 25.2482C126.112 26.8085 125.349 28.4003 123.821 30.0236C122.31 31.6312 120.292 32.9708 117.768 34.0426C115.243 35.0985 112.663 35.6265 110.026 35.6265C106.987 35.6265 104.752 34.9724 103.321 33.6643C102.678 33.0654 102.356 32.5374 102.356 32.0804C102.356 31.6076 102.477 31.1111 102.718 30.591C101.544 32.6714 100.684 34.2396 100.137 35.2955C99.8962 35.7683 99.4058 36.0047 98.6662 36.0047C97.9427 36.0047 97.3799 35.8156 96.9779 35.4374C96.576 35.0591 96.375 34.6336 96.375 34.1608C96.375 33.6879 96.4473 33.2703 96.5921 32.9078C97.3156 31.0481 99.8641 26.6982 104.237 19.8582C108.627 13.0024 111.312 9.03073 112.293 7.94326C112.807 7.3286 113.973 7.02128 115.79 7.02128C116.513 7.02128 116.875 7.17888 116.875 7.49409C116.875 7.7305 115.806 9.50355 113.668 12.8132C111.529 16.1229 110.412 17.8566 110.315 18.0142C112.55 17.3838 114.833 16.5248 117.165 15.4374C119.512 14.3341 121.554 13.089 123.291 11.7021C125.043 10.3152 125.919 9.06225 125.919 7.94326C125.919 6.09929 123.877 5.1773 119.793 5.1773C115.517 5.1773 111.4 6.28842 107.445 8.51064C106.464 9.06225 105.717 9.56659 105.202 10.0236C104.688 10.4807 104.43 10.8038 104.43 10.9929C104.43 11.182 104.511 11.2766 104.672 11.2766ZM109.013 22.5768C108.723 22.5768 108.402 22.2459 108.048 21.5839C106.521 23.9795 104.921 26.643 103.249 29.5745C104.004 28.55 105.106 28.0378 106.553 28.0378C107.517 28.0378 108 28.156 108 28.3924C108 28.487 107.895 28.5737 107.686 28.6525C107.043 28.8889 106.722 29.2435 106.722 29.7163C106.722 30.8511 107.952 31.4184 110.412 31.4184C113.74 31.4184 116.755 30.2837 119.456 28.0142C120.903 26.8164 121.626 25.7683 121.626 24.87C121.626 24.3184 121.04 23.7116 119.866 23.0496C118.499 22.3089 116.417 21.9385 113.619 21.9385C111.674 21.9385 110.428 22.0489 109.881 22.2695C109.334 22.4744 109.045 22.5768 109.013 22.5768Z" fill="#2F5488"/>
<path d="M142.922 17.8014C142.922 18.8416 142.488 19.7557 141.62 20.5437C140.768 21.3318 139.795 21.7258 138.702 21.7258C138.348 21.7258 138.115 21.647 138.002 21.4894C137.89 21.316 137.834 21.0954 137.834 20.8274C137.834 20.5595 137.866 20.2994 137.93 20.0473C137.351 20.2364 136.708 20.528 136.001 20.922C135.293 21.316 134.425 21.8991 133.396 22.6714C132.367 23.4437 131.852 24.0189 131.852 24.3972C131.852 24.5232 132.037 24.5863 132.407 24.5863C132.793 24.5863 133.38 24.4602 134.168 24.208C134.956 23.9401 135.502 23.8061 135.808 23.8061C136.129 23.8061 136.338 23.8219 136.435 23.8534C136.644 23.9637 136.869 24.208 137.11 24.5863C137.351 24.9488 137.472 25.2403 137.472 25.461C137.472 25.6659 137.263 25.9417 136.845 26.2884C136.427 26.6351 135.952 26.9031 135.422 27.0922C134.891 27.2656 134.538 27.3995 134.361 27.4941C130.968 29.3538 129.272 30.6304 129.272 31.3239C129.272 32.5532 130.341 33.1678 132.479 33.1678C133.846 33.1678 135.221 32.7423 136.604 31.8913C137.777 31.1663 138.83 30.4334 139.763 29.6927C140.712 28.9362 141.307 28.4712 141.548 28.2979C141.805 28.1245 141.998 28.0378 142.127 28.0378C142.545 28.0378 142.754 28.4949 142.754 29.409C142.754 30.3231 142.697 30.9299 142.585 31.2293C142.472 31.513 142.151 31.8676 141.62 32.2931C138.179 35.0355 134.923 36.4066 131.852 36.4066C130.212 36.4066 128.902 36.186 127.921 35.7447C126.12 34.9409 125.22 33.7116 125.22 32.0567C125.22 29.8818 126.755 28.2348 129.826 27.1158C129.215 26.8479 128.822 26.5091 128.645 26.0993C128.468 25.6738 128.379 25.0039 128.379 24.0898C128.379 23.16 128.814 22.1828 129.682 21.1584C130.566 20.1182 131.643 19.2671 132.914 18.6052C135.743 17.108 138.268 16.3593 140.487 16.3593C141.017 16.3593 141.556 16.4854 142.102 16.7376C142.649 16.9898 142.922 17.3444 142.922 17.8014Z" fill="#2F5488"/>
<path d="M153.896 32.5295C150.906 35.1458 147.336 36.4539 143.188 36.4539C140.68 36.4539 138.887 35.9338 137.809 34.8936C137.199 34.3262 136.893 33.3255 136.893 31.8913C136.893 29.6848 138.605 28.2585 142.03 27.6123C143.107 27.4074 144.402 27.305 145.913 27.305C147.424 27.305 149.491 27.5808 152.111 28.1324C153.51 26.6036 155.174 24.3578 157.104 21.3948C159.049 18.4161 160.585 16.1229 161.71 14.5154C162.836 12.9078 164.114 11.2687 165.545 9.59811C166.976 7.91174 168.471 6.39086 170.031 5.03546C173.198 2.26162 176.334 0.874704 179.437 0.874704C180.82 0.874704 181.817 1.22143 182.428 1.91489C183.039 2.59259 183.344 3.40426 183.344 4.34988C183.344 5.27975 182.902 6.36722 182.018 7.61229C181.149 8.85737 180.136 9.9606 178.979 10.922C177.837 11.8834 176.704 12.7029 175.578 13.3806C174.469 14.0426 173.592 14.3735 172.949 14.3735C172.306 14.3735 171.751 14.1056 171.285 13.5697C170.819 13.0339 170.586 12.5217 170.586 12.0331C170.586 11.5288 170.65 11.182 170.779 10.9929C170.923 10.788 171.068 10.6856 171.213 10.6856C171.357 10.6856 171.446 10.7723 171.478 10.9456C171.993 10.788 172.813 10.2994 173.938 9.47991C175.08 8.6446 176.117 7.77778 177.049 6.87943C177.982 5.98109 178.448 5.42159 178.448 5.20095C178.448 4.96454 178.303 4.84634 178.014 4.84634C177.741 4.84634 177.363 4.9409 176.88 5.13002C176.398 5.31915 175.755 5.71316 174.951 6.31206C174.147 6.89519 173.279 7.65169 172.346 8.58156C170.095 10.788 167.587 13.9165 164.822 17.9669C164.178 18.881 163.27 20.2128 162.096 21.9622C159.7 25.5083 157.988 27.9354 156.959 29.2435C165.207 31.3712 171.1 32.435 174.637 32.435C176.277 32.435 177.427 32.2301 178.086 31.8203C178.328 31.6785 178.488 31.6076 178.569 31.6076C178.649 31.6076 178.689 31.6706 178.689 31.7967C178.689 31.9228 178.617 32.1119 178.472 32.3641C178.328 32.6162 177.966 33.1521 177.387 33.9716C176.824 34.7912 176.406 35.2797 176.133 35.4374C175.345 35.8944 174.002 36.1229 172.105 36.1229C170.224 36.1229 168.423 35.989 166.703 35.721C164.998 35.4531 163.624 35.1931 162.579 34.9409C161.533 34.673 159.982 34.2474 157.924 33.6643C155.882 33.0812 154.539 32.7029 153.896 32.5295ZM145.093 31.0875C142.987 31.0875 141.934 31.3318 141.934 31.8203C141.934 32.0095 142.111 32.1749 142.464 32.3168C142.834 32.4586 143.268 32.5295 143.767 32.5295C145.326 32.5295 146.83 32.1277 148.277 31.3239C147.039 31.1663 145.977 31.0875 145.093 31.0875Z" fill="#2F5488"/>
<path d="M194.197 17.8014C194.197 18.8416 193.763 19.7557 192.895 20.5437C192.043 21.3318 191.07 21.7258 189.976 21.7258C189.623 21.7258 189.39 21.647 189.277 21.4894C189.164 21.316 189.108 21.0954 189.108 20.8274C189.108 20.5595 189.14 20.2994 189.205 20.0473C188.626 20.2364 187.983 20.528 187.275 20.922C186.568 21.316 185.7 21.8991 184.671 22.6714C183.641 23.4437 183.127 24.0189 183.127 24.3972C183.127 24.5232 183.312 24.5863 183.682 24.5863C184.068 24.5863 184.654 24.4602 185.442 24.208C186.23 23.9401 186.777 23.8061 187.082 23.8061C187.404 23.8061 187.613 23.8219 187.709 23.8534C187.918 23.9637 188.143 24.208 188.385 24.5863C188.626 24.9488 188.746 25.2403 188.746 25.461C188.746 25.6659 188.537 25.9417 188.119 26.2884C187.701 26.6351 187.227 26.9031 186.696 27.0922C186.166 27.2656 185.812 27.3995 185.635 27.4941C182.243 29.3538 180.546 30.6304 180.546 31.3239C180.546 32.5532 181.616 33.1678 183.754 33.1678C185.121 33.1678 186.495 32.7423 187.878 31.8913C189.052 31.1663 190.105 30.4334 191.038 29.6927C191.986 28.9362 192.581 28.4712 192.822 28.2979C193.08 28.1245 193.273 28.0378 193.401 28.0378C193.819 28.0378 194.028 28.4949 194.028 29.409C194.028 30.3231 193.972 30.9299 193.859 31.2293C193.747 31.513 193.425 31.8676 192.895 32.2931C189.454 35.0355 186.198 36.4066 183.127 36.4066C181.487 36.4066 180.177 36.186 179.196 35.7447C177.395 34.9409 176.495 33.7116 176.495 32.0567C176.495 29.8818 178.03 28.2348 181.101 27.1158C180.49 26.8479 180.096 26.5091 179.919 26.0993C179.742 25.6738 179.654 25.0039 179.654 24.0898C179.654 23.16 180.088 22.1828 180.956 21.1584C181.841 20.1182 182.918 19.2671 184.188 18.6052C187.018 17.108 189.542 16.3593 191.761 16.3593C192.292 16.3593 192.83 16.4854 193.377 16.7376C193.924 16.9898 194.197 17.3444 194.197 17.8014Z" fill="#2F5488"/>
<path d="M200.781 19.7872C202.341 18.7313 203.868 17.9196 205.364 17.3522C206.859 16.7849 208.153 16.5012 209.247 16.5012C210.34 16.5012 211.039 16.8085 211.345 17.4232C211.972 16.7139 212.752 16.3357 213.684 16.2884C213.958 16.2727 214.295 16.2648 214.697 16.2648C215.099 16.2648 215.348 16.3199 215.445 16.4303C215.541 16.5248 215.63 16.7139 215.71 16.9976C215.791 17.2813 215.839 17.4389 215.855 17.4704C215.871 17.502 215.879 17.5571 215.879 17.6359C215.879 17.699 215.839 17.7857 215.758 17.896C215.678 17.9905 215.582 18.0851 215.469 18.1797C215.373 18.2742 215.316 18.3294 215.3 18.3452C211.747 23.3412 208.113 29.0386 204.399 35.4374C208.226 32.1119 211.65 29.7242 214.673 28.2742C214.866 28.1797 215.051 28.1324 215.228 28.1324C215.485 28.1324 215.654 28.2979 215.734 28.6288C215.815 28.944 215.855 29.4011 215.855 30C215.855 30.5989 215.815 30.9693 215.734 31.1111C215.67 31.253 215.3 31.5366 214.625 31.9622C213.95 32.3877 213.073 32.9393 211.996 33.617C210.919 34.2947 209.777 35.0433 208.571 35.8629C205.677 37.8329 203.298 39.9054 201.432 42.0804C199.021 44.933 197.292 47.234 196.247 48.9834C195.861 49.6611 195.21 50 194.294 50C192.477 50 191.568 49.1568 191.568 47.4704C191.568 45.7526 192.428 43.9953 194.149 42.1986C195.435 40.8589 196.617 39.7636 197.694 38.9125C198.771 38.0615 199.358 37.5808 199.455 37.4704C200.645 35.721 202.26 33.2388 204.302 30.0236C202.566 31.8046 200.878 33.223 199.238 34.279C197.614 35.3349 196.4 35.8629 195.596 35.8629C193.136 35.8629 191.906 34.8306 191.906 32.766C191.906 31.1269 192.332 29.472 193.184 27.8014C194.036 26.1308 195.13 24.6414 196.464 23.3333C197.799 22.0095 199.238 20.8274 200.781 19.7872ZM209.97 19.1726C208.105 19.5666 206.352 20.2206 204.712 21.1348C203.072 22.0331 201.722 23.0024 200.661 24.0426C199.599 25.067 198.683 26.1229 197.911 27.2104C196.464 29.2435 195.741 30.8195 195.741 31.9385C195.741 32.2065 195.805 32.3404 195.934 32.3404C196.078 32.3404 196.384 32.1986 196.85 31.9149C197.332 31.6312 198.008 31.1505 198.876 30.4728C199.744 29.7794 200.709 28.9598 201.77 28.0142C204.23 25.792 206.963 22.8448 209.97 19.1726Z" fill="#2F5488"/>
<path d="M232.376 17.5177C233.598 17.5177 234.209 17.9275 234.209 18.747C234.209 19.1883 234.104 19.5114 233.895 19.7163C233.686 19.9212 233.236 20.6068 232.544 21.773C231.869 22.9236 231.113 24.405 230.277 26.2175C229.457 28.0142 228.927 29.5508 228.686 30.8274C228.637 30.985 228.613 31.2057 228.613 31.4894C228.613 32.3562 228.854 32.7896 229.337 32.7896C229.819 32.7896 230.39 32.569 231.049 32.1277C231.708 31.6706 232.295 31.1899 232.81 30.6856C233.324 30.1655 233.823 29.6375 234.305 29.1017C234.804 28.5658 235.101 28.2585 235.197 28.1797C235.294 28.1009 235.439 28.0615 235.632 28.0615C235.937 28.0615 236.122 28.29 236.186 28.747C236.251 29.2041 236.283 29.6769 236.283 30.1655C236.283 30.6541 236.235 30.9929 236.138 31.182C235.672 32.0804 234.643 33.16 233.051 34.4208C231.475 35.6816 230.036 36.3121 228.734 36.3121C227.448 36.3121 226.499 35.9259 225.888 35.1537C225.277 34.3814 224.971 33.5303 224.971 32.6005C224.971 31.6548 225.132 30.8274 225.454 30.1182C224.119 31.8203 222.584 33.2624 220.847 34.4444C219.127 35.6265 217.72 36.2175 216.627 36.2175C215.533 36.2175 214.641 35.8944 213.95 35.2482C213.065 34.4444 212.623 33.3333 212.623 31.9149C212.623 30.4807 212.945 29.0465 213.588 27.6123C214.247 26.1623 215.107 24.8463 216.168 23.6643C217.23 22.4665 218.395 21.379 219.666 20.4019C222.335 18.353 224.795 17.3286 227.046 17.3286C227.914 17.3286 228.621 17.4704 229.168 17.7541C229.715 18.0378 230.06 18.3924 230.205 18.818C230.591 18.2506 230.913 17.896 231.17 17.7541C231.443 17.5965 231.845 17.5177 232.376 17.5177ZM229.168 20.1418C226.419 20.1418 223.573 21.6391 220.63 24.6336C219.585 25.7053 218.62 26.9898 217.736 28.487C216.868 29.9842 216.434 31.0087 216.434 31.5603C216.434 32.1119 216.595 32.3877 216.916 32.3877C217.366 32.3877 218.62 31.5209 220.678 29.7872C222.737 28.0378 224.103 26.7533 224.779 25.9338C225.518 25.0197 226.981 23.089 229.168 20.1418Z" fill="#2F5488"/>
<path d="M254.082 0C254.854 0 255.529 0.228526 256.108 0.685579C256.703 1.12687 257 1.78881 257 2.67139C257 3.55398 256.502 4.9409 255.505 6.83215C254.508 8.70764 253.31 10.6304 251.911 12.6005C250.512 14.5548 248.929 16.6351 247.16 18.8416C244.362 22.3404 241.677 25.4846 239.105 28.2742C239.088 28.4634 239.016 28.818 238.887 29.3381C238.775 29.8424 238.719 30.3546 238.719 30.8747C238.719 31.3948 238.96 31.8676 239.442 32.2931C239.941 32.7029 240.552 32.9078 241.275 32.9078C241.999 32.9078 242.77 32.6556 243.59 32.1513C244.427 31.647 245.15 31.0875 245.761 30.4728C247.369 28.8495 248.366 28.0378 248.752 28.0378C249.138 28.0378 249.331 28.6131 249.331 29.7636V30.2364C249.331 30.8511 249.218 31.3002 248.993 31.5839C247.642 33.2072 246.123 34.4208 244.435 35.2246C242.746 36.0126 241.147 36.4066 239.635 36.4066C238.124 36.4066 236.974 35.9574 236.186 35.0591C235.398 34.145 235.005 32.8999 235.005 31.3239C235.005 28.2506 235.841 24.6414 237.513 20.4965C239.201 16.3357 241.098 12.7975 243.205 9.8818C247.948 3.29393 251.573 0 254.082 0ZM252.996 3.92435C252.996 3.68794 252.916 3.56974 252.755 3.56974C252.193 3.56974 250.713 5.14578 248.318 8.29787C245.922 11.45 244.185 13.9637 243.108 15.8392C242.047 17.7147 241.042 20.0709 240.093 22.9078C241.991 20.7013 244.611 17.2656 247.956 12.6005C251.316 7.91962 252.996 5.02758 252.996 3.92435Z" fill="#2F5488"/>
<path d="M11.822 63.806L16.448 55.4H14.288L10.76 61.538L7.16001 55.4H5.01801L9.71601 63.878V68H11.822V63.806Z" fill="#35598D"/>
<path d="M21.1281 58.352C18.1581 58.352 16.1241 60.314 16.1241 63.212C16.1241 66.092 18.1581 68.072 21.1281 68.072C24.0801 68.072 26.1141 66.092 26.1141 63.212C26.1141 60.314 24.0801 58.352 21.1281 58.352ZM21.1281 60.134C22.8381 60.134 24.0441 61.394 24.0441 63.23C24.0441 65.084 22.8381 66.344 21.1281 66.344C19.4001 66.344 18.1941 65.084 18.1941 63.23C18.1941 61.394 19.4001 60.134 21.1281 60.134Z" fill="#35598D"/>
<path d="M36.9681 58.424H34.8981V63.14C34.8981 64.814 33.9261 66.092 32.2701 66.128C30.8841 66.128 30.0381 65.246 30.0381 63.806V58.424H27.9681V64.382C27.9681 66.668 29.2821 68.072 31.4781 68.072C33.0441 68.054 34.2501 67.46 34.8981 66.128V68H36.9681V58.424Z" fill="#35598D"/>
<path d="M42.1039 58.424H40.0339V68H42.1039V62.996C42.2659 61.358 43.4899 60.224 45.4159 60.332V58.352C43.9039 58.352 42.7519 59.036 42.1039 60.332V58.424Z" fill="#35598D"/>
<path d="M57.4645 55.346C53.7385 55.346 50.8405 58.1 50.8405 61.682C50.8405 65.3 53.7025 68.09 57.3925 68.09C59.1745 68.09 60.9925 67.28 62.2705 66.02L61.0105 64.616C60.0565 65.534 58.7605 66.11 57.5005 66.11C54.9805 66.11 53.0005 64.148 53.0005 61.664C53.0005 59.18 54.9805 57.236 57.5005 57.236C58.7785 57.236 60.0925 57.848 61.0105 58.838L62.2525 57.29C61.0285 56.084 59.2465 55.346 57.4645 55.346Z" fill="#35598D"/>
<path d="M68.1496 58.352C65.1796 58.352 63.1456 60.314 63.1456 63.212C63.1456 66.092 65.1796 68.072 68.1496 68.072C71.1016 68.072 73.1356 66.092 73.1356 63.212C73.1356 60.314 71.1016 58.352 68.1496 58.352ZM68.1496 60.134C69.8596 60.134 71.0656 61.394 71.0656 63.23C71.0656 65.084 69.8596 66.344 68.1496 66.344C66.4216 66.344 65.2156 65.084 65.2156 63.23C65.2156 61.394 66.4216 60.134 68.1496 60.134Z" fill="#35598D"/>
<path d="M87.7876 58.352C86.0416 58.352 84.7636 59.054 84.1516 60.656C83.7016 59.198 82.5316 58.352 80.8216 58.352C79.2376 58.352 78.0136 58.928 77.3476 60.278V58.424H75.2956V68H77.3476V63.266C77.3476 61.592 78.3556 60.332 80.0116 60.278C81.4156 60.278 82.2616 61.16 82.2616 62.618V68H84.3316V63.266C84.3316 61.592 85.3216 60.332 86.9596 60.278C88.3636 60.278 89.2276 61.16 89.2276 62.618V68H91.2976V62.042C91.2976 59.756 89.9836 58.352 87.7876 58.352Z" fill="#35598D"/>
<path d="M97.8131 56.354C98.2451 56.354 98.7311 56.516 99.1271 56.804L99.9191 55.22C99.3071 54.77 98.5331 54.554 97.7591 54.554C96.1031 54.554 94.4651 55.616 94.4651 57.848V58.784H93.2051V60.332H94.4651V68H96.5171V60.332H99.0191V58.784H96.5171V57.65C96.5171 56.75 97.1111 56.354 97.8131 56.354Z" fill="#35598D"/>
<path d="M104.167 58.352C101.197 58.352 99.1632 60.314 99.1632 63.212C99.1632 66.092 101.197 68.072 104.167 68.072C107.119 68.072 109.153 66.092 109.153 63.212C109.153 60.314 107.119 58.352 104.167 58.352ZM104.167 60.134C105.877 60.134 107.083 61.394 107.083 63.23C107.083 65.084 105.877 66.344 104.167 66.344C102.439 66.344 101.233 65.084 101.233 63.23C101.233 61.394 102.439 60.134 104.167 60.134Z" fill="#35598D"/>
<path d="M113.383 58.424H111.313V68H113.383V62.996C113.545 61.358 114.769 60.224 116.695 60.332V58.352C115.183 58.352 114.031 59.036 113.383 60.332V58.424Z" fill="#35598D"/>
<path d="M123.293 65.804C122.735 66.074 122.285 66.218 121.853 66.218C121.205 66.218 120.827 65.912 120.827 64.922V60.332H123.653V58.784H120.827V56.156H118.775V58.784H117.425V60.332H118.775V65.3C118.775 67.262 120.017 68.09 121.457 68.09C122.267 68.09 123.059 67.838 123.815 67.388L123.293 65.804Z" fill="#35598D"/>
<path d="M131.394 54.428C130.71 54.428 130.188 54.95 130.188 55.688C130.188 56.408 130.71 56.93 131.394 56.93C132.078 56.93 132.6 56.408 132.6 55.688C132.6 54.95 132.078 54.428 131.394 54.428ZM132.42 68V58.424H130.368V68H132.42Z" fill="#35598D"/>
<path d="M138.345 58.334C136.509 58.334 134.817 59.162 134.817 61.106C134.799 64.562 139.839 63.464 139.839 65.426C139.839 66.146 139.155 66.452 138.273 66.452C137.229 66.452 135.897 66.002 135.069 65.264L134.331 66.74C135.285 67.604 136.779 68.072 138.183 68.072C140.109 68.072 141.855 67.19 141.855 65.228C141.873 61.754 136.779 62.708 136.779 60.944C136.779 60.26 137.373 59.99 138.183 59.99C139.029 59.99 140.091 60.314 140.937 60.836L141.693 59.306C140.829 58.694 139.551 58.334 138.345 58.334Z" fill="#35598D"/>
<path d="M152.683 58.352C149.713 58.352 147.679 60.314 147.679 63.212C147.679 66.092 149.713 68.072 152.683 68.072C155.635 68.072 157.669 66.092 157.669 63.212C157.669 60.314 155.635 58.352 152.683 58.352ZM152.683 60.134C154.393 60.134 155.599 61.394 155.599 63.23C155.599 65.084 154.393 66.344 152.683 66.344C150.955 66.344 149.749 65.084 149.749 63.23C149.749 61.394 150.955 60.134 152.683 60.134Z" fill="#35598D"/>
<path d="M168.523 58.424H166.453V63.14C166.453 64.814 165.481 66.092 163.825 66.128C162.439 66.128 161.593 65.246 161.593 63.806V58.424H159.523V64.382C159.523 66.668 160.837 68.072 163.033 68.072C164.599 68.054 165.805 67.46 166.453 66.128V68H168.523V58.424Z" fill="#35598D"/>
<path d="M173.659 58.424H171.589V68H173.659V62.996C173.821 61.358 175.045 60.224 176.971 60.332V58.352C175.459 58.352 174.307 59.036 173.659 60.332V58.424Z" fill="#35598D"/>
<path d="M188.821 58.352C187.327 58.352 186.175 58.964 185.473 60.08V58.424H183.403V71.492H185.473V66.344C186.175 67.46 187.327 68.072 188.857 68.072C191.593 68.072 193.393 66.11 193.393 63.248C193.393 60.332 191.539 58.352 188.821 58.352ZM188.389 66.308C186.679 66.308 185.473 65.03 185.473 63.176C185.473 61.376 186.679 60.08 188.389 60.08C190.099 60.08 191.305 61.394 191.305 63.176C191.305 65.012 190.099 66.308 188.389 66.308Z" fill="#35598D"/>
<path d="M197.618 58.424H195.548V68H197.618V62.996C197.78 61.358 199.004 60.224 200.93 60.332V58.352C199.418 58.352 198.266 59.036 197.618 60.332V58.424Z" fill="#35598D"/>
<path d="M203.658 54.428C202.974 54.428 202.452 54.95 202.452 55.688C202.452 56.408 202.974 56.93 203.658 56.93C204.342 56.93 204.864 56.408 204.864 55.688C204.864 54.95 204.342 54.428 203.658 54.428ZM204.684 68V58.424H202.632V68H204.684Z" fill="#35598D"/>
<path d="M211.851 58.352C208.881 58.352 206.847 60.314 206.847 63.212C206.847 66.092 208.881 68.072 211.851 68.072C214.803 68.072 216.837 66.092 216.837 63.212C216.837 60.314 214.803 58.352 211.851 58.352ZM211.851 60.134C213.561 60.134 214.767 61.394 214.767 63.23C214.767 65.084 213.561 66.344 211.851 66.344C210.123 66.344 208.917 65.084 208.917 63.23C208.917 61.394 210.123 60.134 211.851 60.134Z" fill="#35598D"/>
<path d="M221.067 58.424H218.997V68H221.067V62.996C221.229 61.358 222.453 60.224 224.379 60.332V58.352C222.867 58.352 221.715 59.036 221.067 60.332V58.424Z" fill="#35598D"/>
<path d="M227.107 54.428C226.423 54.428 225.901 54.95 225.901 55.688C225.901 56.408 226.423 56.93 227.107 56.93C227.791 56.93 228.313 56.408 228.313 55.688C228.313 54.95 227.791 54.428 227.107 54.428ZM228.133 68V58.424H226.081V68H228.133Z" fill="#35598D"/>
<path d="M236.092 65.804C235.534 66.074 235.084 66.218 234.652 66.218C234.004 66.218 233.626 65.912 233.626 64.922V60.332H236.452V58.784H233.626V56.156H231.574V58.784H230.224V60.332H231.574V65.3C231.574 67.262 232.816 68.09 234.256 68.09C235.066 68.09 235.858 67.838 236.614 67.388L236.092 65.804Z" fill="#35598D"/>
<path d="M246.644 58.424H244.574L241.91 65.678L239.048 58.424H236.906L240.866 67.856L240.542 68.576C240.218 69.296 239.714 69.638 239.084 69.638C238.652 69.638 238.292 69.494 237.842 69.17L236.96 70.772C237.626 71.33 238.31 71.582 239.174 71.582C240.614 71.582 241.694 70.826 242.288 69.314L246.644 58.424Z" fill="#35598D"/>
<path d="M248.345 65.786C247.697 65.786 247.211 66.272 247.211 66.956C247.211 67.658 247.697 68.162 248.345 68.162C248.993 68.162 249.479 67.658 249.479 66.956C249.479 66.272 248.993 65.786 248.345 65.786Z" fill="#35598D"/>
</svg>
