<svg width="75" height="61" viewBox="0 0 75 61" fill="none" xmlns="http://www.w3.org/2000/svg">
<path d="M68.1818 0H6.81818C3.06818 0 0 3.05 0 6.77778V47.4444C0 51.1722 3.06818 54.2222 6.81818 54.2222H23.8636V61H51.1364V54.2222H68.1818C71.9318 54.2222 74.9659 51.1722 74.9659 47.4444L75 6.77778C75 3.05 71.9318 0 68.1818 0ZM68.1818 47.4444H6.81818V6.77778H68.1818V47.4444ZM61.3636 16.9444H23.8636V23.7222H61.3636V16.9444ZM61.3636 30.5H23.8636V37.2778H61.3636V30.5ZM20.4545 16.9444H13.6364V23.7222H20.4545V16.9444ZM20.4545 30.5H13.6364V37.2778H20.4545V30.5Z" fill="#35598D"/>
</svg>
