<svg width="73" height="63" viewBox="0 0 73 63" fill="none" xmlns="http://www.w3.org/2000/svg">
<path fill-rule="evenodd" clip-rule="evenodd" d="M22.9091 49.6364L34.3636 38.4109C32.8745 38.2582 31.7673 38.1818 30.5455 38.1818C20.3509 38.1818 0 43.2982 0 53.4545V61.0909H34.3636L22.9091 49.6364ZM30.5455 30.5455C38.9836 30.5455 45.8182 23.7109 45.8182 15.2727C45.8182 6.83455 38.9836 0 30.5455 0C22.1073 0 15.2727 6.83455 15.2727 15.2727C15.2727 23.7109 22.1073 30.5455 30.5455 30.5455Z" fill="#35598D"/>
<path fill-rule="evenodd" clip-rule="evenodd" d="M47.6127 63L34.3636 49.6363L39.7091 44.2527L47.6127 52.1945L67.2 32.4545L72.5455 37.8382L47.6127 63Z" fill="#35598D"/>
</svg>
